<svg width="54" height="54" viewBox="0 0 54 54" fill="none" xmlns="http://www.w3.org/2000/svg">
<rect width="54" height="54" rx="27" fill="white"/>
<path d="M32.9051 29.7907C32.9013 29.7035 32.8769 29.6185 32.8339 29.5426C32.7909 29.4666 32.7304 29.402 32.6576 29.354C32.5847 29.3059 32.5015 29.2758 32.4148 29.2662C32.328 29.2566 32.2403 29.2676 32.1586 29.2985L26.9967 31.2388L21.8347 29.2985C21.7531 29.2675 21.6653 29.2563 21.5786 29.2659C21.4918 29.2755 21.4086 29.3055 21.3357 29.3536C21.2629 29.4017 21.2025 29.4664 21.1596 29.5424C21.1166 29.6184 21.0924 29.7035 21.0888 29.7907L20.7021 39.816C20.6986 39.9353 20.7339 40.0526 20.8026 40.1502C20.8713 40.2478 20.9698 40.3205 21.0833 40.3574L26.7314 42.248C26.8162 42.2914 26.9103 42.3136 27.0055 42.3126C27.1008 42.3117 27.1944 42.2876 27.2783 42.2425L32.9106 40.3574C33.0235 40.3196 33.1214 40.2466 33.19 40.1492C33.2585 40.0519 33.2942 39.9351 33.2918 39.816C33.2879 39.507 32.9051 29.7907 32.9051 29.7907Z" fill="#013781"/>
<path d="M39.8685 35.5717L36.9006 27.3812C36.6668 26.7333 36.2389 26.1734 35.6751 25.7777C35.1114 25.382 34.4394 25.1699 33.7506 25.1702H30.8659C30.5025 25.171 30.1445 25.2582 29.8213 25.4245L27.8537 26.4362C27.5878 26.5697 27.2945 26.6392 26.997 26.6392C26.6995 26.6392 26.4061 26.5697 26.1403 26.4362L24.1727 25.4245C23.8478 25.2575 23.4879 25.1704 23.1227 25.1702H20.2434C19.5543 25.1713 18.8822 25.384 18.3179 25.7794C17.7536 26.1748 17.3243 26.7339 17.0879 27.3812L14.1249 35.5717C14.0401 35.8058 14.0128 36.0568 14.0452 36.3037C14.0777 36.5505 14.169 36.7859 14.3114 36.9902C14.4538 37.1944 14.6432 37.3614 14.8636 37.4771C15.084 37.5929 15.329 37.654 15.578 37.6553H19.6795L19.983 29.7519C19.9912 29.489 20.0621 29.232 20.19 29.0022C20.3179 28.7724 20.499 28.5766 20.718 28.4312C20.9373 28.286 21.1879 28.1948 21.4491 28.165C21.7104 28.1351 21.975 28.1675 22.2214 28.2595L26.9962 30.0559L31.7715 28.2595C32.0172 28.1697 32.2805 28.139 32.5403 28.1698C32.8 28.2006 33.0489 28.2921 33.2667 28.4368C33.4846 28.5816 33.6654 28.7755 33.7945 29.003C33.9236 29.2305 33.9973 29.4851 34.0098 29.7464L34.3084 37.6553H38.4089C38.658 37.654 38.9032 37.5929 39.1239 37.4773C39.3445 37.3617 39.5343 37.1948 39.6772 36.9908C39.8201 36.7867 39.912 36.5513 39.9452 36.3044C39.9784 36.0575 39.9524 35.8063 39.8685 35.5717ZM26.9967 24.883C30.3627 24.883 32.8056 20.4506 32.8056 17.4658C32.4868 9.76031 21.5061 9.7625 21.1884 17.4658C21.1884 20.4506 23.6313 24.883 26.9967 24.883Z" fill="#013781"/>
</svg>
