<svg width="34" height="35" viewBox="0 0 34 35" fill="none" xmlns="http://www.w3.org/2000/svg">
<g clip-path="url(#clip0_36_449)">
<path d="M6.6072 22.2977L9.70994 30.4432C9.9753 31.191 10.7912 31.5812 11.539 31.3159C11.545 31.3152 11.5509 31.3145 11.5562 31.3079L12.8515 30.8179C13.596 30.5228 13.9664 29.6911 13.6884 28.9386L11.2541 22.3337L6.6072 22.2977Z" fill="#02648E"/>
<path d="M2.14292 19.4011L2.62198 21.2404C2.90714 22.3236 4.01793 22.976 5.10717 22.6902L6.60645 22.2978L4.9452 16.5582L3.59275 16.9159C2.50946 17.2011 1.85709 18.3119 2.14292 19.4011Z" fill="#02648E"/>
<path d="M14.9374 26.6993L13.1151 27.3815L11.6218 23.3957L15.0385 25.5121C15.5055 25.8031 15.4465 26.5092 14.9374 26.6993Z" fill="#D22732"/>
<path d="M4.94621 16.5582L6.60745 22.2978L11.2484 22.3344L13.1145 22.4131C12.2787 20.8855 11.6306 19.2583 11.1869 17.5718C10.7885 16.0732 10.5607 14.5373 10.5004 12.9884L4.94621 16.5582ZM16.2202 16.117C16.939 18.8517 18.1243 21.1779 19.4332 22.6762C20.6247 24.043 21.9261 24.7281 23.0735 24.4237C23.9167 24.2018 24.5652 23.4834 24.9993 22.4153C24.7247 22.8142 24.3812 23.0821 23.9824 23.1814C23.3144 23.3533 22.5754 23.0569 21.8378 22.3986C21.2612 21.8848 20.6843 21.1541 20.1421 20.2506C19.6005 19.353 19.1056 18.2814 18.682 17.0931C18.654 17.0058 18.1795 15.4736 18.1795 15.4736C18.0536 14.9994 17.7465 13.5086 17.7037 13.2361C17.373 11.1088 17.4178 9.21036 17.8144 7.86315C18.1241 6.81518 18.6482 6.11684 19.3572 5.93426C19.6561 5.85829 19.9718 5.8769 20.2909 5.97954C19.5437 5.50318 18.7943 5.32853 18.0973 5.50977C16.8387 5.84486 16.0077 7.29541 15.6964 9.34449C15.4087 11.2281 15.5579 13.6171 16.2202 16.117Z" fill="#1F315F"/>
<path d="M17.7037 13.2361C17.7465 13.5086 18.0536 14.9994 18.1795 15.4736C18.1795 15.4736 18.654 17.0058 18.682 17.0931C19.1056 18.2814 19.6005 19.353 20.142 20.2506C20.6783 21.1548 21.2612 21.8848 21.8378 22.3986C22.5814 23.0562 23.3144 23.3533 23.9823 23.1814C24.3805 23.0761 24.7247 22.8142 24.9993 22.4153C25.4507 21.7674 25.7287 20.7592 25.8184 19.525C25.8184 19.525 26.044 16.9309 25.1561 13.6606C24.1635 9.94383 22.3624 7.02387 20.7087 6.15545C20.5676 6.08094 20.4286 6.02429 20.2909 5.97954C19.9658 5.87757 19.6501 5.85896 19.3572 5.93426C18.6482 6.11684 18.13 6.81451 17.8143 7.86315C17.4178 9.21036 17.3729 11.1088 17.7037 13.2361Z" fill="#F99615"/>
<path d="M17.8508 14.0694C17.939 14.5298 18.0464 15 18.1723 15.4742C18.1723 15.4742 18.4533 16.4675 18.5724 16.8279C18.6004 16.9152 18.6349 17.0078 18.6629 17.095C19.8435 16.8712 21.0956 16.5851 21.2298 16.5458C22.2549 16.2793 22.8877 15.3155 22.6452 14.3962C22.4027 13.4769 21.3788 12.9534 20.3537 13.2199C20.2208 13.2711 18.9617 13.6545 17.8508 14.0694Z" fill="#D22732"/>
<path d="M11.1921 17.5711C11.6358 19.2575 12.2832 20.8788 13.119 22.4064L19.4324 22.6761C18.1236 21.1778 16.9383 18.8516 16.2194 16.1169C15.5572 13.617 15.4079 11.228 15.6957 9.34441L10.5056 12.9877C10.5659 14.5365 10.7937 16.0725 11.1921 17.5711Z" fill="#D3D3D3"/>
<path d="M27.6725 3.56338L27.1102 3.11514L25.0078 5.75303L25.57 6.20115L27.6725 3.56338ZM31.0719 10.0285L30.7778 9.37235L27.7432 10.7324L28.0373 11.3886L31.0719 10.0285ZM31.4332 23.1234L28.4399 21.5682L28.1084 22.2062L31.1018 23.7614L31.4332 23.1234ZM31.9142 15.8357L28.5888 15.8268L28.5868 16.5457L31.9123 16.5546L31.9142 15.8357Z" fill="#58595B"/>
</g>
<defs>
<clipPath id="clip0_36_449">
<rect width="30" height="30" fill="white" transform="matrix(-0.993682 0.112232 0.112232 0.993682 30.2216 0.911293)"/>
</clipPath>
</defs>
</svg>
